<?xml version="1.0" encoding="UTF-8" standalone="no"?>
<!-- Created with Inkscape (http://www.inkscape.org/) -->

<svg
   width="203.57677mm"
   height="104.96444mm"
   viewBox="0 0 203.57677 104.96444"
   version="1.1"
   id="svg5"
   xml:space="preserve"
   inkscape:export-filename="Error4041.png"
   inkscape:export-xdpi="96"
   inkscape:export-ydpi="96"
   inkscape:version="1.2.2 (732a01da63, 2022-12-09)"
   sodipodi:docname="error404pesa.svg"
   xmlns:inkscape="http://www.inkscape.org/namespaces/inkscape"
   xmlns:sodipodi="http://sodipodi.sourceforge.net/DTD/sodipodi-0.dtd"
   xmlns="http://www.w3.org/2000/svg"
   xmlns:svg="http://www.w3.org/2000/svg"><sodipodi:namedview
     id="namedview7"
     pagecolor="#505050"
     bordercolor="#eeeeee"
     borderopacity="1"
     inkscape:showpageshadow="0"
     inkscape:pageopacity="0"
     inkscape:pagecheckerboard="0"
     inkscape:deskcolor="#505050"
     inkscape:document-units="mm"
     showgrid="false"
     inkscape:zoom="0.56882515"
     inkscape:cx="386.76209"
     inkscape:cy="657.49555"
     inkscape:window-width="1920"
     inkscape:window-height="1057"
     inkscape:window-x="-8"
     inkscape:window-y="-8"
     inkscape:window-maximized="1"
     inkscape:current-layer="layer1" /><defs
     id="defs2" /><g
     inkscape:label="Capa 1"
     inkscape:groupmode="layer"
     id="layer1"
     transform="translate(-1.594855,-98.647496)"><path
       style="fill:#000000;stroke-width:0.249984"
       d="m 28.606895,203.53867 c -2.207159,-0.74048 -4.342874,-2.87309 -5.191361,-4.98098 -0.751615,-2.064 -0.929008,-8.65106 -0.810707,-30.10339 l 0.110974,-20.12375 0.570709,-1.4999 c 0.313891,-0.82494 0.721193,-1.6248 0.905116,-1.77745 0.183921,-0.15265 0.334404,-0.35703 0.334404,-0.45416 0,-0.38953 1.698481,-1.89937 2.87482,-2.55554 1.176499,-0.65625 1.426138,-0.69681 4.249735,-0.69049 2.822707,0.007 3.062243,0.0465 4.057278,0.67981 0.581606,0.3702 1.141214,0.67309 1.243572,0.67309 0.375569,0 1.760755,1.787 2.469653,3.18605 l 0.728965,1.43866 0.07458,24.49846 c 0.07375,24.22813 -0.01117,27.37328 -0.739057,27.37328 -0.121652,0 -0.359389,0.30688 -0.528306,0.68196 -0.399921,0.88804 -1.540556,2.05355 -2.869098,2.93172 -0.983911,0.65035 -1.269066,0.70702 -3.874758,0.77006 -1.546978,0.0374 -3.169911,0.0161 -3.606519,-0.0475 z m 143.681355,-0.002 c -1.89666,-0.40811 -4.60158,-3.0468 -5.46784,-5.33399 -0.55371,-1.46194 -0.89433,-23.39705 -0.59076,-38.0434 0.27318,-13.18062 0.2568,-13.02899 1.64344,-15.20326 0.9684,-1.51844 1.55436,-2.0787 3.02351,-2.89083 1.14745,-0.63432 1.47106,-0.68996 4.12247,-0.70883 2.69313,-0.0192 2.96807,0.0255 4.29601,0.69733 0.78029,0.39479 1.73538,1.11186 2.1224,1.59349 0.38703,0.48163 0.90054,1.0544 1.14116,1.27282 0.24061,0.21841 0.43817,0.51273 0.43902,0.65404 7.4e-4,0.14131 0.1977,0.5944 0.43747,1.00688 0.40539,0.69741 0.44063,2.4967 0.50312,25.68751 0.057,21.15077 0.0135,25.02271 -0.28645,25.4984 -0.1945,0.30846 -0.43532,0.84207 -0.53516,1.18579 -0.2881,0.99196 -1.81762,2.70966 -3.27359,3.67638 -1.31016,0.8699 -1.3994,0.89058 -4.15511,0.96326 -1.54891,0.0409 -3.08776,0.0159 -3.41969,-0.0555 z m -157.870728,-7.39 c -0.86692,-0.31487 -2.390707,-1.642 -2.390707,-2.08217 0,-0.16944 -0.151146,-0.36607 -0.335877,-0.43695 -0.81068,-0.31109 -0.914046,-2.796 -0.914046,-21.97372 0,-17.53749 0.03252,-19.01703 0.431698,-19.64458 0.237436,-0.37326 0.490545,-0.7349 0.562466,-0.80365 0.07192,-0.0687 0.252461,-0.34997 0.401199,-0.62496 0.148736,-0.27498 0.514339,-0.61102 0.81245,-0.74673 0.298108,-0.13572 0.542016,-0.32945 0.542016,-0.43049 0,-0.10101 0.594809,-0.35664 1.321802,-0.56799 1.190558,-0.3461 1.45118,-0.34583 2.624836,0.002 0.716667,0.21282 1.303034,0.48751 1.303034,0.61042 0,0.12289 0.220198,0.29333 0.489329,0.37875 0.269127,0.0854 0.831592,0.75354 1.249921,1.48468 l 0.760593,1.32939 v 19.70058 c 0,19.43793 -0.07203,21.36099 -0.800172,21.36099 -0.109868,0 -0.199766,0.12052 -0.199766,0.26783 -0.863728,1.8207 -4.296927,2.69409 -5.858776,2.17589 z m 174.493278,-0.033 c -0.7985,-0.31275 -2.3949,-1.75015 -2.3949,-2.15636 0,-0.13991 -0.0899,-0.25439 -0.19977,-0.25439 -0.7279,0 -0.80017,-1.92351 -0.80017,-21.29744 v -19.63722 l 0.61355,-1.09393 c 1.0306,-1.83749 2.17681,-2.73347 3.696,-2.8891 1.37589,-0.14097 3.43996,0.267 3.43996,0.6799 0,0.13219 0.16614,0.24035 0.36921,0.24035 0.20308,0 0.56713,0.30935 0.80902,0.68745 0.24188,0.37811 0.58423,0.80011 0.76077,0.93779 0.56838,0.44327 0.79752,7.34531 0.80431,24.22664 0.006,14.70902 -0.0331,16.31721 -0.41657,17.18642 -0.80277,1.4296 -1.97885,2.83405 -3.55147,3.4157 -1.02848,0.35471 -2.14893,0.33824 -3.12994,-0.046 z m -89.639442,-7.81611 c -1.03119,-0.1867 -2.043617,-0.4073 -2.249857,-0.49024 -0.20624,-0.0829 -0.93745,-0.3015 -1.6249,-0.48567 -1.99905,-0.53555 -5.04687,-2.03459 -6.59427,-3.24333 -2.405251,-1.87883 -5.21304,-5.49673 -4.460552,-5.7475 0.168019,-0.056 2.896811,-0.22434 6.063982,-0.37411 4.97756,-0.23538 5.88008,-0.2215 6.65512,0.10235 2.626697,1.0975 7.701359,1.4642 11.084909,0.801 3.96441,-1.01391 6.67096,-2.34281 7.63749,-6.07742 0.39159,-1.57019 -0.0313,-4.49426 -0.82483,-5.70324 -0.6194,-0.94368 -1.9327,-1.62462 -3.13566,-1.62583 -0.50994,-5e-4 -1.29541,-0.22546 -1.7455,-0.49988 -0.8855,-0.53989 -4.8809,-4.50029 -5.51424,-5.46594 -0.37148,-0.56639 -0.35098,-0.62321 0.47227,-1.30882 2.46436,-2.05234 5.45143,-2.65114 9.36009,-1.87639 3.4139,0.67668 5.61565,2.31497 7.61158,5.66368 1.28293,2.15243 2.2628,6.54417 2.2628,10.14178 -0.42018,7.84799 -3.82414,12.24012 -11.1243,15.09166 -3.49727,1.3056 -9.91984,1.81384 -13.874132,1.09791 z m -94.8690658,-1.2153 c -1.163438,-0.51205 -2.058189,-1.47456 -2.357255,-2.53578 -0.432412,-1.5344 -0.582735,-9.59866 -0.320938,-17.21711 0.21007,-6.11316 0.299908,-7.10224 0.709409,-7.81042 0.257882,-0.44598 0.609494,-0.81158 0.781359,-0.81245 0.171863,-7.5e-4 0.31248,-0.0963 0.31248,-0.212 0,-0.45432 1.86718,-0.78586 2.868584,-0.50936 1.472142,0.40648 2.1386539,0.95092 2.6996919,2.20526 0.486888,1.08854 0.510391,1.6298 0.52715,12.13867 0.01778,11.14912 0.0025,11.37494 -0.900586,13.28804 -0.288829,0.61188 -2.3993179,1.84643 -3.1038039,1.81562 -0.256376,-0.0112 -0.803617,-0.16893 -1.216091,-0.35047 z M 199.29609,186.76565 c -0.75649,-0.48646 -1.25528,-1.07918 -1.70608,-2.02732 l -0.63705,-1.33985 0.12244,-11.03437 c 0.10816,-9.74583 0.17306,-11.15112 0.556,-12.0343 0.6185,-1.42645 1.05707,-1.83275 2.413,-2.23541 1.89733,-0.56345 3.41964,0.0296 4.45428,1.73544 0.40833,0.6732 0.47129,1.65832 0.6151,9.62441 0.17843,9.8835 -0.0518,14.79379 -0.74914,15.97422 -0.49621,0.84001 -2.48319,2.02465 -3.39594,2.02465 -0.33198,0 -1.08465,-0.30936 -1.67261,-0.68747 z M 42.024938,172.58758 c 0,-2.54829 0.02812,-4.64671 0.06249,-4.66316 0.03437,-0.0164 12.042995,-0.11662 26.685829,-0.22262 14.642833,-0.10603 26.962124,-0.26997 27.376194,-0.36439 0.81302,-0.18542 0.61226,-0.34384 5.536069,4.36863 2.02453,1.93763 2.0526,1.71534 -0.4143,3.28176 -0.7562,0.48017 -1.824882,1.0001 -2.374842,1.1554 -0.54997,0.1553 -1.506157,0.4238 -2.124867,0.59665 -0.86242,0.24094 -7.38141,0.33374 -27.935758,0.39764 l -26.810822,0.0833 z m 82.692572,0.17919 c 0.04,-2.44061 0.12085,-4.57809 0.17965,-4.74994 0.0844,-0.24648 4.30688,-0.31249 19.98849,-0.31249 h 19.8816 v 4.7497 4.74971 l -20.06125,2.4e-4 -20.06124,2.6e-4 z m -14.94682,3.50988 c -4.21967,-1.78789 -7.34865,-5.04686 -9.42187,-6.98393 -3.598989,-3.3659 -4.251699,-3.82296 -5.471109,-3.83128 -0.7692,-0.006 -1.16273,0.14618 -1.60598,0.618 -0.58608,0.62385 -0.59548,0.62496 -5.31009,0.62496 -4.378342,0 -4.713989,-0.032 -4.5998,-0.43747 0.06774,-0.24061 0.201587,-0.8312 0.297429,-1.31242 0.09583,-0.48122 0.460563,-1.38116 0.810496,-1.99987 0.992082,-2.13791 1.53858,-2.58994 2.95486,-3.91745 2.258985,-2.13174 4.592935,-3.08363 7.553575,-3.08072 3.587717,0.003 5.995629,1.43114 11.580459,6.86587 1.84518,1.39197 4.09935,4.5369 6.6578,4.63584 0.84952,0.004 1.10995,0.19106 1.49652,1.07037 0.40744,0.9268 0.3929,4.16469 -0.0231,5.15417 -0.1818,0.43237 -0.75375,1.23274 -1.27101,1.77859 -0.84356,0.89022 -1.06064,0.99046 -2.1068,0.97275 -0.6415,-0.0112 -1.33509,-0.0817 -1.54133,-0.15741 z"
       id="path302"
       sodipodi:nodetypes="ccscsssscssscssssscccsssscssscsssssccccsssscsssscscscsscccsssscsssssscccssscsssscccsssssssccsssssscssssscssscsssssssssccsssssscsscscccccscccsssscccccssscsc"
       inkscape:export-filename=".\path302.svg"
       inkscape:export-xdpi="96"
       inkscape:export-ydpi="96" /><path
       style="fill:#000000;stroke-width:0.134976"
       d="m 13.199065,132.75779 c -0.239499,-0.15164 -0.393926,-5.80886 -0.173847,-6.36867 0.12765,-0.32474 0.217997,-0.35754 1.213416,-0.44055 1.868488,-0.15584 3.046971,0.30196 3.486714,1.35441 0.660132,1.57993 -0.32044,2.57924 -2.661879,2.71274 l -1.203307,0.0686 v 1.3166 c 0,1.07605 -0.03905,1.33158 -0.213507,1.39853 -0.258621,0.0992 -0.219247,0.10287 -0.44759,-0.0417 z m 3.394367,-3.98212 c 0.277076,-0.18256 0.371185,-0.35444 0.371185,-0.67793 0,-0.94046 -1.23474,-1.49551 -2.682655,-1.20593 l -0.4218,0.0844 v 1.07944 1.07946 l 1.181042,-0.0574 c 0.838159,-0.0407 1.288808,-0.12843 1.552228,-0.30199 z m 1.046427,3.90368 c -0.183694,-0.22133 0.138842,-1.22737 1.524997,-4.75669 0.743037,-1.89188 0.989383,-2.18279 1.442116,-1.70298 0.303021,0.32114 2.566566,5.77909 2.566566,6.18862 0,0.32745 -0.279767,0.51266 -0.59292,0.39248 -0.103348,-0.0396 -0.36116,-0.5257 -0.57281,-1.08006 l -0.384818,-1.00793 -1.28239,0.0382 -1.282391,0.0382 -0.309771,0.86996 c -0.438314,1.23095 -0.719141,1.48938 -1.108579,1.02012 z m 3.437301,-3.18573 c -0.158928,-0.50073 -0.747991,-1.77658 -0.796152,-1.72437 -0.0256,0.0279 -0.232927,0.49089 -0.460687,1.02911 l -0.414096,0.97858 h 0.880426 c 0.832849,0 0.875569,-0.0152 0.790509,-0.28332 z m 4.592399,3.14522 c -1.492005,-0.51593 -2.361049,-1.68009 -2.361049,-3.16284 0,-1.80633 1.638395,-3.4819 3.400439,-3.47765 0.687184,0.001 1.34815,0.31139 2.067505,0.96884 0.6001,0.54845 0.746681,0.76216 0.714272,1.04128 -0.06215,0.5347 -0.551355,0.53919 -0.941864,0.008 -0.675992,-0.9184 -1.94725,-1.32198 -2.78373,-0.88375 -0.428813,0.22465 -1.139548,0.95556 -1.376178,1.41524 -0.253263,0.49199 -0.206149,1.55499 0.09156,2.06465 0.142044,0.24322 0.515742,0.62316 0.830455,0.84435 0.474545,0.33353 0.707615,0.40294 1.365831,0.4068 0.663894,0.004 0.852744,-0.0505 1.155109,-0.3328 0.400678,-0.37404 0.74074,-0.95713 0.74074,-1.2701 0,-0.162 -0.227998,-0.21175 -1.113556,-0.24292 -1.085254,-0.0382 -1.113544,-0.0477 -1.113544,-0.37435 0,-0.28507 0.08073,-0.34946 0.5399,-0.4309 0.296948,-0.0526 0.915194,-0.0993 1.373868,-0.10358 0.960796,-0.01 1.258173,0.18717 1.258173,0.82981 0,1.54082 -1.374678,2.95755 -2.850168,2.93734 -0.176978,-0.002 -0.625949,-0.10954 -0.997706,-0.23814 z m 5.083125,0.12308 c -0.261966,-0.16601 -0.137579,-0.60037 0.216532,-0.75613 0.298306,-0.13121 0.302914,-0.17154 0.302914,-2.65005 0,-2.40116 -0.01238,-2.52003 -0.269278,-2.58722 -0.346277,-0.0905 -0.482702,-0.4479 -0.269206,-0.70515 0.232451,-0.28009 1.527795,-0.27196 1.811111,0.0119 0.287423,0.28743 0.266681,0.5614 -0.05787,0.76406 -0.253942,0.15859 -0.269956,0.31477 -0.269956,2.63319 0,2.07446 0.03131,2.46459 0.197719,2.46459 0.286518,0 0.482059,0.42973 0.324036,0.71212 -0.101682,0.18168 -0.313772,0.23227 -0.96713,0.23065 -0.460294,-0.001 -0.918801,-0.0539 -1.018899,-0.1174 z m 3.451697,-0.0337 c -0.209686,-0.1174 -0.232725,-0.43439 -0.232725,-3.2022 0,-3.2688 0.06894,-3.65661 0.617674,-3.47618 0.297924,0.098 1.983636,2.30806 3.046268,3.99389 0.702591,1.11465 0.723439,1.13382 0.807273,0.74238 0.04727,-0.22101 0.09323,-1.35197 0.102038,-2.51326 0.01667,-2.20315 0.07287,-2.4004 0.623366,-2.18913 0.172084,0.0661 0.202458,0.55753 0.202458,3.27568 0,3.28451 -0.03655,3.52194 -0.541651,3.52194 -0.333727,0 -0.793759,-0.56298 -2.268951,-2.77675 -0.74561,-1.11892 -1.443117,-2.10697 -1.550001,-2.19569 -0.168346,-0.13971 -0.185087,0.16218 -0.125054,2.25571 0.06537,2.28214 0.05489,2.42475 -0.189326,2.55544 -0.168417,0.0901 -0.3398,0.093 -0.491346,0.008 z m 6.144912,0.0637 c -0.09275,-0.0374 -0.168727,-0.19264 -0.168727,-0.34488 0,-0.48397 2.114607,-6.05357 2.410817,-6.34978 0.103111,-0.10311 0.237309,-0.10466 0.453781,-0.005 0.236725,0.10871 0.597242,0.8439 1.568825,3.1992 0.693804,1.68193 1.226656,3.14878 1.184102,3.25967 -0.107277,0.27961 -0.456352,0.39014 -0.670598,0.21232 -0.09835,-0.0815 -0.345848,-0.57429 -0.550105,-1.09491 l -0.371375,-0.94656 h -1.252267 -1.252279 l -0.365315,1.00163 c -0.294162,0.80655 -0.59548,1.24117 -0.795438,1.14732 -0.0125,-0.006 -0.09859,-0.0413 -0.191421,-0.0787 z m 3.035695,-4.02795 c -0.232534,-0.55708 -0.466295,-0.96708 -0.519481,-0.91109 -0.08561,0.0901 -0.795272,1.76748 -0.795272,1.87975 0,0.0243 0.390951,0.0442 0.868771,0.0442 h 0.868758 z m 6.52929,3.93344 c -0.09656,-0.11632 -0.184813,-1.25411 -0.240214,-3.09574 -0.07799,-2.59383 -0.06287,-2.94965 0.139199,-3.25801 0.124744,-0.19037 0.315629,-0.34615 0.424193,-0.34615 0.257157,0 1.126653,1.10419 2.702253,3.43161 l 1.272281,1.87939 0.03679,-2.5397 c 0.03179,-2.19782 0.06703,-2.55878 0.261705,-2.68141 0.163095,-0.10276 0.283624,-0.093 0.438671,0.0357 0.183432,0.15223 0.213769,0.60742 0.213769,3.20674 0,1.83007 -0.05525,3.13267 -0.139722,3.29039 -0.07811,0.14589 -0.281506,0.26108 -0.461068,0.26108 -0.382747,0 -0.663014,-0.34063 -2.276738,-2.76702 -0.641844,-0.96508 -1.290963,-1.90654 -1.442485,-2.09213 l -0.275505,-0.33744 0.02881,2.47324 c 0.02357,2.02847 -0.006,2.49536 -0.16556,2.59623 -0.262979,0.1664 -0.338026,0.15815 -0.516409,-0.0568 z m 8.30418,-0.006 c -1.489265,-0.55393 -2.254199,-2.36562 -1.772081,-4.19708 0.541699,-2.05781 1.952155,-2.93219 4.033079,-2.50019 1.929855,0.40063 2.768799,2.48662 1.856272,4.61545 -0.732583,1.70904 -2.591903,2.64916 -4.11727,2.08182 z m 2.101892,-1.0597 c 1.709012,-1.03464 2.010949,-3.84679 0.497073,-4.62963 -0.317845,-0.16437 -0.67854,-0.20913 -1.370296,-0.17005 -0.897942,0.0507 -0.961403,0.0772 -1.45494,0.60628 -1.19602,1.2822 -1.009267,3.62037 0.342717,4.29094 0.594718,0.29497 1.402682,0.25527 1.985446,-0.0975 z m 7.738479,1.14863 c -0.516564,-0.0263 -1.017661,-0.11299 -1.113544,-0.19256 -0.132948,-0.11038 -0.174359,-0.85967 -0.174359,-3.15535 v -3.01064 l 0.355647,-0.27976 c 0.323274,-0.25427 0.536793,-0.27974 2.345558,-0.27974 1.650956,0 2.020141,0.0364 2.167341,0.21378 0.128626,0.15499 0.138473,0.27563 0.03572,0.43867 -0.119244,0.18933 -0.441422,0.23081 -2.037513,0.26227 -1.342649,0.0264 -1.913506,0.0855 -1.956287,0.20246 -0.03322,0.0908 -0.03191,0.54296 0.0024,1.00479 l 0.06334,0.83968 1.690558,0.0376 c 1.381404,0.0307 1.715656,0.0775 1.827732,0.25553 0.07549,0.11983 0.09906,0.31722 0.05239,0.43867 -0.07239,0.1888 -0.339728,0.22082 -1.843663,0.22082 h -1.758924 l -0.0225,0.80985 c -0.01238,0.44543 -0.0275,0.91615 -0.0337,1.04607 -0.0095,0.21212 0.195172,0.24309 2.013402,0.30369 2.009235,0.067 2.024988,0.0699 2.070197,0.38967 0.025,0.1772 -0.03572,0.37367 -0.134973,0.43661 -0.174168,0.11037 -1.592888,0.11752 -3.549317,0.0179 z m 5.153743,-0.0524 c -0.209686,-0.1174 -0.232725,-0.4344 -0.232725,-3.20219 0,-3.26882 0.06894,-3.65662 0.617686,-3.47619 0.297913,0.098 1.983624,2.30805 3.046256,3.99389 0.702603,1.11464 0.723439,1.13381 0.807273,0.74237 0.04727,-0.22101 0.09323,-1.35196 0.102039,-2.51326 0.01667,-2.20314 0.07287,-2.40039 0.623365,-2.18913 0.172085,0.0661 0.202458,0.55755 0.202458,3.2757 0,3.28449 -0.03655,3.52194 -0.541639,3.52194 -0.333727,0 -0.793759,-0.563 -2.268951,-2.77676 -0.745621,-1.11892 -1.443128,-2.10698 -1.550013,-2.19569 -0.168346,-0.13972 -0.185087,0.16217 -0.125054,2.25572 0.06537,2.28212 0.05489,2.42475 -0.189326,2.55542 -0.168417,0.0901 -0.339799,0.093 -0.491345,0.008 z m 8.501257,-0.0564 c -1.738874,-0.55615 -2.654591,-2.80182 -1.89598,-4.64959 0.588503,-1.43343 2.420569,-2.40287 3.82587,-2.02446 0.724321,0.19505 1.919377,1.27205 1.861404,1.67755 -0.07061,0.49377 -0.577085,0.41717 -1.171422,-0.17717 -0.626187,-0.62619 -1.265197,-0.80396 -2.047419,-0.56961 -1.025674,0.30731 -1.882728,1.42799 -1.882728,2.46186 0,0.59121 0.62702,1.84137 1.092886,2.17899 0.206042,0.14932 0.682493,0.28412 1.155908,0.32705 1.061965,0.0963 1.590078,-0.16644 1.930402,-0.96037 0.36441,-0.85017 0.949913,-0.96586 0.949913,-0.18771 0,0.59721 -0.49693,1.38427 -1.081373,1.71274 -0.6811,0.3828 -1.90491,0.477 -2.737461,0.21072 z m 6.990774,0.0446 c -1.143619,-0.40546 -1.794929,-1.34736 -1.91403,-2.768 -0.104896,-1.25073 0.184444,-2.22668 0.901561,-3.04137 0.734643,-0.8346 1.469227,-1.11022 2.662009,-0.99884 1.783452,0.16654 2.737198,1.18433 2.737198,2.92099 0,1.23127 -0.303877,2.03012 -1.106162,2.90795 -0.519088,0.56795 -0.829466,0.78251 -1.359949,0.94004 -0.786317,0.23351 -1.340744,0.24484 -1.920627,0.0392 z m 1.870358,-0.96565 c 0.96857,-0.40469 1.822267,-2.05082 1.666375,-3.21314 -0.151522,-1.12965 -0.914039,-1.72898 -2.200751,-1.72976 -1.032187,-5e-4 -1.586983,0.33888 -2.061909,1.26178 -0.437267,0.84969 -0.468057,2.11358 -0.06822,2.79824 0.559963,0.95878 1.632382,1.31413 2.664486,0.88288 z m 3.96389,0.97742 c -0.209685,-0.1174 -0.232724,-0.4344 -0.232724,-3.2022 0,-3.26881 0.06894,-3.65662 0.617673,-3.47619 0.297925,0.098 1.983636,2.30806 3.04627,3.99389 0.702603,1.11465 0.72344,1.13382 0.807274,0.74237 0.04727,-0.221 0.09323,-1.35196 0.102038,-2.51325 0.01667,-2.20315 0.07287,-2.40039 0.623365,-2.18913 0.172085,0.0661 0.202459,0.55753 0.202459,3.27568 0,3.28451 -0.03655,3.52194 -0.541639,3.52194 -0.333728,0 -0.793759,-0.56298 -2.268954,-2.77676 -0.745621,-1.1189 -1.443128,-2.10696 -1.550013,-2.19568 -0.168346,-0.13971 -0.185087,0.16218 -0.125054,2.25573 0.06537,2.28212 0.05489,2.42473 -0.189325,2.55542 -0.168418,0.0901 -0.3398,0.093 -0.491346,0.008 z m 8.702729,-0.008 c -0.11561,-0.11561 -0.16197,-0.96583 -0.16197,-2.96948 v -2.80751 h -1.00757 c -0.85736,0 -1.02839,-0.0389 -1.14705,-0.26057 -0.10525,-0.19671 -0.0875,-0.31252 0.0724,-0.47243 0.31449,-0.31448 4.9298,-0.31448 5.24429,0 0.1599,0.15991 0.17764,0.27572 0.0724,0.47243 -0.11988,0.22396 -0.2905,0.26057 -1.21453,0.26057 h -1.07506 v 2.80751 c 0,2.78974 -0.0516,3.13146 -0.47241,3.13146 -0.0817,0 -0.22137,-0.0729 -0.31045,-0.16198 z m 4.31924,0 c -0.25364,-0.25364 -0.22661,-6.17695 0.0298,-6.52731 0.17016,-0.2325 0.35634,-0.26099 1.65346,-0.25301 2.16907,0.0133 3.15321,0.41714 3.54652,1.45516 0.2206,0.58222 -0.0376,1.35541 -0.59444,1.78014 l -0.45834,0.3496 0.3274,0.48247 c 0.37721,0.55585 0.92225,2.26809 0.81278,2.55335 -0.11072,0.2886 -0.4836,0.38365 -0.67209,0.17132 -0.0914,-0.10299 -0.30206,-0.62533 -0.46815,-1.16085 -0.19622,-0.63263 -0.4194,-1.06601 -0.6372,-1.23734 -0.42679,-0.3357 -1.22652,-0.47121 -2.08458,-0.35319 l -0.67227,0.0925 v 1.24261 c 0,1.20624 -0.10871,1.56657 -0.47241,1.56657 -0.0817,0 -0.22137,-0.0729 -0.31045,-0.16198 z m 3.74393,-4.0948 c 0.88493,-0.5183 0.88966,-0.95362 0.016,-1.46542 -0.31249,-0.18305 -0.79713,-0.2745 -1.70669,-0.32208 l -1.27028,-0.0664 v 1.11431 1.1143 l 1.25438,-0.0549 c 0.92864,-0.0406 1.37182,-0.12367 1.70669,-0.3198 z m 2.84329,4.05474 c -0.1837,-0.22133 0.13884,-1.22739 1.52499,-4.7567 0.74303,-1.89187 0.98939,-2.18278 1.44212,-1.70299 0.30302,0.32114 2.56657,5.7791 2.56657,6.18862 0,0.32746 -0.27977,0.51266 -0.59292,0.39249 -0.10335,-0.0396 -0.36116,-0.5257 -0.57281,-1.08006 l -0.38483,-1.00792 -1.28238,0.0382 -1.28239,0.0382 -0.30977,0.86995 c -0.43832,1.23097 -0.71915,1.48939 -1.10858,1.02014 z m 3.4373,-3.18573 c -0.15893,-0.50074 -0.74799,-1.7766 -0.79616,-1.72437 -0.0256,0.0279 -0.23292,0.49088 -0.46068,1.0291 l -0.4141,0.97858 h 0.88043 c 0.83285,0 0.87557,-0.0154 0.79051,-0.28331 z m 3.20993,3.23981 c -0.12527,-0.13067 -0.16871,-0.99902 -0.16871,-3.3719 0,-2.39309 0.0424,-3.23061 0.16871,-3.334 0.0952,-0.0779 0.79049,-0.12924 1.59576,-0.11776 1.30006,0.0186 1.49785,0.0566 2.22262,0.42734 0.59263,0.30317 0.8934,0.56522 1.17907,1.02728 0.70048,1.13301 0.63039,2.81272 -0.17006,4.07489 -0.58435,0.92143 -1.50845,1.31765 -3.2722,1.40304 -1.03552,0.0501 -1.42917,0.0225 -1.55519,-0.10894 z m 3.3075,-1.1153 c 0.24158,-0.12596 0.60602,-0.48103 0.80986,-0.78904 0.32223,-0.48693 0.37061,-0.69345 0.37061,-1.58221 0,-0.85415 -0.0517,-1.09462 -0.31434,-1.46289 -0.49561,-0.69485 -1.00794,-0.89428 -2.3177,-0.90216 -1.00945,-0.006 -1.14596,0.0214 -1.13605,0.22931 0.006,0.12992 0.0214,1.27659 0.0337,2.54816 l 0.0225,2.31193 1.04607,-0.062 c 0.60722,-0.036 1.23035,-0.15812 1.48532,-0.29107 z m 2.4104,1.05666 c -0.18549,-0.18549 -0.1512,-0.36128 0.33548,-1.71987 0.72491,-2.02366 1.74474,-4.5797 1.91059,-4.78861 0.15455,-0.19471 0.36297,-0.21236 0.6156,-0.0521 0.25102,0.15918 2.73221,6.1857 2.64273,6.41888 -0.10394,0.27102 -0.45929,0.38028 -0.66943,0.20588 -0.0975,-0.081 -0.34317,-0.56996 -0.54593,-1.08675 l -0.36865,-0.93961 -1.27444,0.0383 -1.27444,0.0383 -0.3048,0.84261 c -0.44407,1.22768 -0.66547,1.44415 -1.06671,1.04291 z m 3.1113,-3.90797 c -0.23481,-0.55554 -0.45759,-1.01109 -0.4951,-1.01231 -0.0571,-0.002 -0.32744,0.64121 -0.75073,1.78621 -0.0775,0.20973 0.0107,0.23621 0.79272,0.23621 h 0.88003 z m 3.57682,3.996 c -0.0993,-0.063 -0.16002,-0.2594 -0.13497,-0.43661 0.0651,-0.46101 0.7008,-0.46101 0.76599,0 0.0389,0.27546 -0.15259,0.55104 -0.38299,0.55104 -0.0371,0 -0.14873,-0.0514 -0.24803,-0.11443 z m 5.99015,0.0179 c -0.51656,-0.0263 -1.01767,-0.11299 -1.11355,-0.19255 -0.13295,-0.11037 -0.17436,-0.85966 -0.17436,-3.15534 v -3.01065 l 0.35565,-0.27974 c 0.32327,-0.25429 0.5368,-0.27975 2.34555,-0.27975 1.65097,0 2.02014,0.0364 2.16734,0.21378 0.12863,0.15498 0.13848,0.27562 0.0357,0.43867 -0.11924,0.18934 -0.44143,0.23081 -2.03752,0.26226 -1.34265,0.0264 -1.91349,0.0855 -1.95629,0.20247 -0.0332,0.0909 -0.0319,0.54295 0.004,1.00478 l 0.0633,0.8397 1.69055,0.0376 c 1.3814,0.0307 1.71565,0.0775 1.82773,0.25551 0.0755,0.11983 0.0991,0.31723 0.0524,0.43868 -0.0724,0.1888 -0.33972,0.22081 -1.84366,0.22081 h -1.75892 l -0.0225,0.80986 c -0.0124,0.44542 -0.0275,0.91616 -0.0337,1.04607 -0.01,0.21213 0.19518,0.24308 2.0134,0.30369 2.00923,0.067 2.025,0.07 2.0702,0.38967 0.025,0.1772 -0.0357,0.37367 -0.13498,0.4366 -0.17416,0.11038 -1.59288,0.11752 -3.54931,0.0179 z m 5.08299,-0.0612 c -0.11669,-0.11668 -0.16198,-1.03714 -0.16198,-3.29039 0,-2.74776 0.0272,-3.15097 0.22362,-3.31367 0.16223,-0.13442 0.63447,-0.18166 1.72093,-0.17217 1.24443,0.0107 1.61789,0.0654 2.21093,0.32246 0.90208,0.39108 1.24373,0.81396 1.24308,1.53859 0,0.52197 -0.40471,1.43017 -0.63865,1.43485 -0.0568,0.001 -0.18776,0.0556 -0.29106,0.12103 -0.15492,0.0981 -0.13764,0.18948 0.0986,0.52115 0.15752,0.2212 0.44723,0.90085 0.64382,1.51033 0.33188,1.02893 0.34154,1.12402 0.13514,1.33042 -0.35224,0.35224 -0.61579,0.0658 -1.03662,-1.12639 -0.20853,-0.59079 -0.50445,-1.17564 -0.6576,-1.29966 -0.37007,-0.29967 -1.20828,-0.42992 -2.03502,-0.31621 l -0.67225,0.0925 v 1.14351 c 0,1.46951 -0.27974,2.00682 -0.78286,1.50369 z m 3.74076,-4.09333 c 1.40413,-0.82358 0.1524,-1.88957 -2.10342,-1.7913 l -0.92197,0.0401 -0.0396,1.062 -0.0397,1.06202 1.3253,-0.0532 c 1.00591,-0.0404 1.43476,-0.11739 1.7795,-0.31964 z m 2.87307,4.09333 c -0.25364,-0.25364 -0.22661,-6.17696 0.0298,-6.5273 0.17014,-0.23251 0.35634,-0.261 1.65346,-0.25302 2.16906,0.0133 3.15321,0.41714 3.54652,1.45516 0.2206,0.58222 -0.0376,1.35542 -0.59444,1.78014 l -0.45835,0.34962 0.32739,0.48245 c 0.37723,0.55585 0.92227,2.26809 0.8128,2.55335 -0.11073,0.28861 -0.48359,0.38365 -0.6721,0.17131 -0.0914,-0.10299 -0.30206,-0.62532 -0.46815,-1.16083 -0.19622,-0.63264 -0.41939,-1.06602 -0.63721,-1.23734 -0.42678,-0.33571 -1.2265,-0.47122 -2.08457,-0.3532 l -0.67228,0.0925 v 1.24261 c 0,1.20624 -0.1087,1.56657 -0.47241,1.56657 -0.0817,0 -0.22135,-0.0729 -0.31044,-0.16198 z m 3.74393,-4.0948 c 0.88493,-0.5183 0.88966,-0.9536 0.016,-1.46542 -0.3125,-0.18305 -0.79714,-0.27451 -1.7067,-0.32208 l -1.27027,-0.0664 v 1.11431 1.11431 l 1.25436,-0.0549 c 0.92865,-0.0406 1.37182,-0.12366 1.70669,-0.3198 z m 4.18209,4.07987 c -1.05788,-0.39489 -1.65353,-1.09875 -1.88877,-2.23194 -0.41116,-1.98047 0.60341,-4.05203 2.19541,-4.48271 1.10197,-0.2981 2.76181,0.0813 3.36579,0.76951 1.03989,1.18476 0.93896,3.33239 -0.22855,4.86308 -0.73949,0.96953 -2.37159,1.48232 -3.44388,1.08206 z m 1.87324,-0.95834 c 0.88001,-0.45973 1.50578,-1.48586 1.61051,-2.64084 0.0801,-0.88353 -0.1241,-1.39316 -0.77913,-1.94433 -0.35973,-0.3027 -0.54734,-0.35353 -1.30494,-0.35353 -1.13868,0 -1.65068,0.30075 -2.12193,1.24642 -0.68813,1.38093 -0.30003,3.21722 0.77923,3.68677 0.55611,0.24194 1.35903,0.24438 1.81626,0.006 z m 3.83337,0.97327 c -0.11668,-0.11668 -0.16197,-1.03714 -0.16197,-3.29039 0,-2.74776 0.0271,-3.15097 0.2236,-3.31367 0.16225,-0.13442 0.63449,-0.18166 1.72095,-0.17217 1.24443,0.0107 1.61788,0.0654 2.21094,0.32246 0.90207,0.39108 1.24371,0.81396 1.24307,1.53859 0,0.52197 -0.40471,1.43017 -0.63865,1.43485 -0.0568,0.001 -0.18776,0.0556 -0.29107,0.12103 -0.15491,0.0981 -0.13764,0.18948 0.0986,0.52115 0.15752,0.2212 0.44723,0.90085 0.64382,1.51033 0.33188,1.02893 0.34154,1.12402 0.13514,1.33042 -0.35225,0.35224 -0.6158,0.0658 -1.03661,-1.12639 -0.20854,-0.59079 -0.50446,-1.17564 -0.65761,-1.29966 -0.37007,-0.29967 -1.20828,-0.42992 -2.03501,-0.31621 l -0.67226,0.0925 v 1.14351 c 0,1.46951 -0.27975,2.00682 -0.78287,1.50369 z m 3.74076,-4.09333 c 1.40414,-0.82358 0.15241,-1.88957 -2.10341,-1.7913 l -0.92197,0.0401 -0.0396,1.062 -0.0396,1.06202 1.3253,-0.0532 c 1.00591,-0.0404 1.43476,-0.11739 1.7795,-0.31964 z m 8.65483,3.99422 c -0.0769,-0.14359 -0.13972,-0.56876 -0.13972,-0.94482 v -0.68376 h -1.2148 c -1.03001,0 -1.25537,-0.0406 -1.48156,-0.26678 -0.32289,-0.32289 -0.26693,-0.49247 0.49189,-1.49044 0.30942,-0.40692 0.9245,-1.31687 1.36686,-2.02212 0.81968,-1.30683 1.16228,-1.56928 1.50674,-1.15422 0.15074,0.18161 0.38267,2.21644 0.4038,3.54265 0.007,0.41749 0.0274,0.4326 0.6468,0.47242 0.48918,0.0314 0.65078,0.0984 0.68603,0.28384 0.0771,0.40638 -0.23575,0.63465 -0.87006,0.63465 h -0.59087 v 0.78287 c 0,0.766 -0.15231,1.1068 -0.49467,1.1068 -0.0939,0 -0.23359,-0.11752 -0.31044,-0.26109 z m -0.005,-3.73196 c 0,-0.63721 -0.0538,-1.13831 -0.11961,-1.11357 -0.0659,0.0248 -0.46177,0.54609 -0.87999,1.15855 l -0.76036,1.11356 h 0.87999 0.87997 z m 4.96005,3.71374 c -2.08182,-1.09902 -1.99463,-5.64851 0.12558,-6.55214 0.52838,-0.2252 1.52834,-0.0707 2.04644,0.31606 1.31379,0.98088 1.47796,4.40122 0.27693,5.76914 -0.39289,0.44747 -1.07931,0.75099 -1.67251,0.73952 -0.14847,-0.004 -0.49787,-0.12553 -0.77644,-0.27258 z m 1.61968,-0.99497 c 0.48464,-0.40781 0.709,-1.12433 0.709,-2.26437 0,-1.60414 -0.4701,-2.40032 -1.41725,-2.40032 -0.693,0 -1.08145,0.36827 -1.3581,1.28757 -0.37982,1.26199 -0.10264,2.74398 0.6283,3.35898 0.51718,0.43519 0.93613,0.44046 1.43805,0.0181 z m 5.86509,1.1123 c -0.0891,-0.0891 -0.16196,-0.51425 -0.16196,-0.94482 v -0.78287 l -1.11356,-0.002 c -0.61246,-0.001 -1.25088,-0.0386 -1.41873,-0.0836 -0.44677,-0.11972 -0.53838,-0.66503 -0.18603,-1.10735 0.43165,-0.54187 1.45224,-2.00505 2.08662,-2.99147 0.6193,-0.96302 1.03781,-1.1771 1.30931,-0.66978 0.0857,0.16029 0.1901,1.10543 0.23182,2.10032 l 0.0758,1.80889 h 0.57065 c 1.15334,0 1.16824,0.84294 0.0162,0.91849 l -0.62731,0.0411 v 0.67635 c 0,1.01584 -0.34577,1.47365 -0.78287,1.03655 z m -0.16196,-3.90879 v -1.23627 l -0.80986,1.16828 c -0.44542,0.64255 -0.80987,1.19887 -0.80987,1.23626 0,0.0374 0.36445,0.068 0.80987,0.068 h 0.80986 z m -56.13824,-0.30155 c -0.19648,-0.23675 0.0191,-0.75679 0.31369,-0.75679 0.31371,0 0.55447,0.39829 0.39442,0.65245 -0.19018,0.30201 -0.5055,0.34847 -0.70811,0.10431 z"
       id="path453" /><path
       d="m 34.844619,115.99082 c -3.500894,-2.10003 -4.419666,-4.94681 -4.425466,-8.07443 5.01e-4,-2.33826 0.08553,-2.86317 0.723215,-4.45896 0.79433,-1.98778 2.193556,-3.625927 3.598473,-4.212934 1.030547,-0.430587 3.658022,-0.935444 5.86227,-0.0658 1.916938,0.756277 3.103526,2.585444 3.960369,5.033624 0.904331,2.58385 0.916594,4.19289 0.05287,6.93705 -0.559611,1.77794 -0.848455,2.27998 -1.939502,3.37103 -2.170762,2.17075 -5.206836,2.74076 -7.83223,1.47045 z m 5.684756,-0.98607 c 1.63828,-0.82614 2.924343,-2.95561 3.494812,-5.78675 0.547496,-2.71712 -0.486064,-6.25222 -2.316857,-7.92439 -1.084125,-0.9902 -3.274725,-1.741317 -4.504786,-1.544627 -4.561115,0.763147 -5.674612,5.166887 -5.677799,8.016757 0,2.49754 0.0542,2.79681 0.764184,4.21906 1.040515,2.08438 2.473041,3.22769 4.360495,3.48014 1.103843,0.14764 3.157655,-0.096 3.879951,-0.46019 z m 10.834875,1.15509 c -1.62185,-0.73646 -3.059333,-2.20443 -3.924661,-4.00788 -0.739157,-1.5405 -0.785164,-1.8042 -0.787034,-4.51097 -0.139541,-3.23961 1.410447,-6.89169 4.167939,-8.243634 0.819377,-0.39588 1.549593,-0.505807 3.360034,-0.505807 3.10254,-0.1804 5.145799,1.826581 6.397325,4.491311 0.667207,1.48179 0.735174,1.88144 0.732742,4.30843 -0.0026,2.62408 -0.07857,2.97584 -1.111597,5.1485 -1.466526,3.08441 -5.782151,4.70619 -8.834748,3.32005 z m 5.262221,-1.15135 c 0.789238,-0.32977 1.921902,-1.4456 2.707083,-2.66686 0.238342,-0.37072 0.590588,-1.5801 0.782769,-2.68754 0.733613,-4.22744 -0.830736,-8.16509 -3.72411,-9.37402 -7.227489,-2.221178 -10.300024,5.65918 -8.084306,11.36062 0.463433,1.01853 2.067626,2.90119 2.820288,3.30986 1.307671,0.71 3.8729,0.73701 5.498276,0.0579 z m 10.745487,1.03316 c -3.864525,-1.97036 -4.452773,-5.7658 -4.463023,-8.29494 -0.23638,-5.62442 3.947939,-10.094834 10.279704,-8.484324 1.090876,0.544197 2.71847,2.176224 3.144303,3.152884 1.226846,2.81377 1.262913,2.97049 1.254188,5.44965 -0.165567,7.56611 -5.925831,10.01228 -10.215172,8.17677 z m 5.275212,-0.96313 c 0.832758,-0.31296 1.676567,-1.09077 2.709997,-2.49803 1.409295,-1.91909 1.40496,-7.66148 -0.0074,-9.81385 -1.275278,-1.94346 -2.432928,-2.67082 -4.760195,-2.990897 -5.915114,0.523027 -7.493456,5.948157 -6.453513,10.436177 0.622201,2.6039 2.514818,4.80424 4.485951,5.2153 1.33386,0.0427 2.798113,0.0861 4.025134,-0.3487 z m 10.749327,0.79735 c -3.4535,-1.83937 -4.26856,-4.73172 -4.249734,-8.23488 -0.312352,-4.55529 2.717218,-8.837471 7.150853,-8.862931 4.085965,0.0628 7.889505,4.115871 7.473235,9.010031 0.0555,3.74539 -1.8993,6.83194 -4.6113,8.228 -1.80334,0.91062 -3.779491,0.86255 -5.763054,-0.14017 z m 5.499654,-0.7924 c 0.90918,-0.34528 1.54297,-0.95795 2.52868,-2.44444 1.06231,-1.60197 1.41521,-3.09994 1.30495,-5.53921 -0.20292,-4.48927 -3.05945,-6.80195 -6.512628,-7.306487 -2.445878,-0.004 -4.509621,1.904927 -5.475928,3.972907 -0.688479,1.55242 -0.907248,4.54999 -0.466235,6.38835 1.255479,4.24499 4.710608,6.31748 8.621161,4.92888 z m 11.061811,1.12377 c -0.841624,-0.55422 -1.764034,-0.9882 -2.348804,-1.70729 -2.783347,-2.60893 -2.765977,-7.36784 -1.775937,-10.65066 0.64664,-2.00447 2.232057,-3.906407 3.803681,-4.563064 1.430228,-0.597597 4.876808,-0.535657 6.143148,0.11039 4.60224,3.218194 5.66197,9.585284 2.46227,14.336144 -1.78991,2.49607 -5.51777,3.60955 -8.284358,2.4745 z m 5.312158,-1.21582 c 0.99461,-0.54225 1.35799,-0.89577 2.28783,-2.22575 1.01822,-1.45637 1.46635,-3.01549 1.45091,-5.04788 -0.15374,-2.71024 -1.28591,-6.54498 -4.16981,-7.51789 -2.043,-0.594227 -3.14034,-0.615507 -4.31863,-0.0837 -1.726062,0.77902 -2.653862,1.73844 -3.509949,3.62959 -0.90998,2.72619 -1.31556,5.34932 -0.0236,7.92628 1.023237,2.00119 2.597371,3.44345 4.158499,3.81012 0.81328,0.19101 3.44958,-0.12264 4.12475,-0.49075 z m 11.08038,1.23965 c -1.28535,-0.45545 -3.08537,-2.00444 -3.63422,-3.12742 -1.17862,-2.41148 -1.25864,-2.76584 -1.2462,-5.51862 -0.14768,-3.31078 1.8184,-6.89907 4.2753,-8.269764 1.33261,-0.663617 3.90607,-0.959334 6.30215,0.12228 1.66947,1.041984 2.80429,2.735214 3.57725,4.324124 0.38376,0.8016 0.48476,1.5852 0.49998,3.87932 0.0184,2.77895 -0.009,2.93092 -0.81984,4.55703 -1.84304,3.69575 -5.39346,5.29485 -8.95442,4.03305 z m 5.17381,-1.22729 c 0.89364,-0.44927 1.87253,-1.48403 2.67659,-2.8294 0.93934,-2.51821 1.32695,-6.78258 0.007,-9.039 -0.96224,-1.6286 -1.90289,-2.43138 -3.51132,-2.9967 -1.71189,-0.601667 -2.24145,-0.615247 -3.76408,-0.0964 -3.56126,1.59141 -4.39236,4.29663 -4.41258,7.59875 0.0787,3.20412 1.27,7.18687 4.85042,7.76465 1.35931,0.18596 3.3723,-0.009 4.15422,-0.40186 z m 10.61319,1.01032 c -1.63036,-0.78941 -2.64619,-1.86675 -3.65228,-3.87339 -1.82336,-3.9395 -0.36675,-10.50189 3.47472,-12.843924 0.95711,-0.494947 4.92886,-0.560877 5.98388,-0.0993 1.08683,0.475457 2.7532,2.332744 3.61421,4.028304 1.16372,3.00612 1.24951,6.33619 -0.0228,8.92596 -0.4387,0.88766 -1.20807,2.03649 -1.70972,2.55296 -1.84795,1.9026 -5.26198,2.48409 -7.68799,1.30944 z m 5.63059,-1.00501 c 1.95239,-1.23818 2.99272,-3.36381 3.39859,-5.33726 0.39124,-1.94169 0.39119,-2.20018 -7.5e-4,-3.99087 -0.62022,-2.8343 -1.94676,-4.64691 -4.09674,-5.59796 -1.20666,-0.533757 -2.87574,-0.449887 -4.58894,0.23058 -3.40307,2.25397 -4.68816,8.29906 -3.0254,11.51993 0.6314,1.20127 1.93593,2.71896 2.68859,3.12793 1.27573,0.69317 4.30447,0.71883 5.62465,0.0476 z m 22.87357,1.20606 c -2.04762,-0.84124 -3.27492,-2.11984 -3.52526,-4.14189 -0.1444,-1.22869 -0.11017,-1.43245 0.24105,-1.43245 0.25169,0 0.40939,0.20611 0.40939,0.53508 0,0.65146 0.98284,2.71972 1.4999,3.15635 3.97158,3.8933 12.45807,-1.54724 7.02542,-5.30297 -2.42912,-1.37756 -5.8112,-1.12528 -7.91683,-3.03308 -1.06981,-1.07739 -1.41001,-2.88485 -0.8057,-4.28056 0.46954,-1.08441 1.44531,-2.167827 2.26205,-2.511594 3.31086,-1.453765 7.94609,-0.0187 8.6845,3.828134 0,1.51184 -0.78739,1.33258 -1.22007,-0.27774 -0.32388,-1.20544 -1.26246,-2.13652 -2.72225,-2.70049 -1.41397,-0.546257 -2.49995,-0.520227 -3.88669,0.0932 -1.8358,0.874 -2.9869,3.61541 -1.65668,5.02624 0.67678,0.64445 2.88333,1.48617 6.55875,2.50191 0.7138,0.19726 1.59766,0.70387 2.18736,1.25377 2.37233,2.1631 1.06949,4.757 -0.0277,5.79992 -1.73822,1.64721 -4.85918,2.3844 -7.10719,1.48622 z m -16.14226,-0.0122 c -0.1123,-1.15215 0.0949,-16.982454 0.22402,-17.113954 0.0959,-0.0977 2.09727,-0.0856 4.44758,0.0267 2.05245,0.20505 3.85934,-0.12137 5.08749,1.052454 1.0673,1.11198 1.25849,1.67116 1.25849,3.68077 0,1.88117 -0.49023,3.07531 -1.6048,3.90903 -0.59189,0.44275 -1.16673,0.52408 -4.47436,0.63301 l -3.79522,0.12499 -0.0688,3.93726 c -0.0653,3.73047 -0.0948,3.93725 -0.56247,3.93725 -0.27149,0 -0.50184,-0.0844 -0.51189,-0.18749 z m 7.14059,-8.77659 c 1.46102,-0.15642 1.5179,-0.19094 2.32421,-1.41027 1.14857,-1.66008 0.72041,-3.91774 -0.68676,-5.24033 -0.40003,-0.36202 -1.14531,-0.47905 -3.93911,-0.61856 -1.89516,-0.0946 -3.53011,-0.13025 -3.63323,-0.0791 -0.10313,0.0511 -0.18749,1.77366 -0.18749,3.82792 v 3.735 l 2.31235,-0.0272 c 1.2718,-0.015 2.98631,-0.0993 3.81003,-0.18749 z m 20.62594,7.59701 c 0,-1.11247 0.0493,-1.19628 0.37498,-1.22318 1.13964,-0.0941 1.06603,0.47826 1.08959,1.33459 0.0325,1.18047 0.0372,1.22318 -1.08959,1.25566 -0.28747,0.008 -0.37498,-0.31855 -0.37498,-1.36707 z m 0,-9.63224 c 0,-5.610767 0.0513,-6.499591 0.37498,-6.499591 0.18757,0 0.83939,-0.20093 0.90566,0.167557 0.15535,0.863897 0.18393,3.494894 0.18393,5.550824 0,4.36797 0.23341,6.55125 -0.34225,7.21184 -0.1751,0.20092 -0.59452,0.0841 -0.90358,0.069 -0.12016,-0.006 -0.21874,-2.92482 -0.21874,-6.49959 z"
       style="fill:#000000;stroke-width:0.249984"
       id="path463" /></g></svg>
